<?xml version="1.0" encoding="UTF-8"?>
<!DOCTYPE svg PUBLIC "-//W3C//DTD SVG 1.1//EN" "http://www.w3.org/Graphics/SVG/1.1/DTD/svg11.dtd">
<svg xmlns="http://www.w3.org/2000/svg" version="1.1" width="1078px" height="624px" style="shape-rendering:geometricPrecision; text-rendering:geometricPrecision; image-rendering:optimizeQuality; fill-rule:evenodd; clip-rule:evenodd" xmlns:xlink="http://www.w3.org/1999/xlink">
<g><path style="opacity:0.99" fill="#ef8152" d="M 108.5,0.5 C 110.833,0.5 113.167,0.5 115.5,0.5C 121.119,38.9973 126.785,77.4973 132.5,116C 131.25,131.078 123.25,139.911 108.5,142.5C 103.514,105.428 98.0135,68.4282 92,31.5C 48.8069,49.4092 29.8069,81.7425 35,128.5C 46.3206,171.153 73.9873,194.153 118,197.5C 175.735,187.182 223.068,204.516 260,249.5C 287.305,288.964 293.638,331.63 279,377.5C 261.497,422.174 229.664,450.84 183.5,463.5C 187.665,492.49 191.831,521.49 196,550.5C 197.538,580.269 185.038,601.769 158.5,615C 129.216,625.235 104.383,618.735 84,595.5C 67.3718,570.16 67.3718,544.827 84,519.5C 101.534,498.655 123.701,491.155 150.5,497C 154.263,497.92 157.763,499.42 161,501.5C 159.651,490.222 158.151,478.888 156.5,467.5C 95.7585,467.563 51.9252,440.563 25,386.5C 17.517,368.585 13.6836,349.918 13.5,330.5C 22.5,330.5 31.5,330.5 40.5,330.5C 43.0674,378.544 66.0674,412.711 109.5,433C 123.308,438.52 137.641,441.02 152.5,440.5C 144.715,387.506 136.882,334.506 129,281.5C 108.368,291.756 97.535,308.423 96.5,331.5C 87.5,331.5 78.5,331.5 69.5,331.5C 71.3949,293.453 90.0616,267.619 125.5,254C 123.726,244.589 122.226,235.089 121,225.5C 77.5818,223.801 44.2484,204.801 21,168.5C -4.84251,114.723 3.65749,67.223 46.5,26C 64.8195,11.6699 85.4862,3.16986 108.5,0.5 Z M 147.5,222.5 C 199.291,223.496 234.791,248.162 254,296.5C 267.201,344.216 255.367,384.383 218.5,417C 207.117,425.859 194.45,432.359 180.5,436.5C 177.744,427.376 176.244,418.042 176,408.5C 216.294,391.601 234.294,361.268 230,317.5C 220.067,276.517 194.067,253.85 152,249.5C 150.902,240.292 149.402,231.292 147.5,222.5 Z M 156.5,277.5 C 190.359,285.568 205.859,306.901 203,341.5C 199.056,359.399 188.889,372.399 172.5,380.5C 171.914,380.291 171.414,379.957 171,379.5C 165.932,345.523 161.099,311.523 156.5,277.5 Z M 125.5,522.5 C 151.226,520.354 165.893,532.021 169.5,557.5C 167.596,575.568 157.929,587.068 140.5,592C 118.311,593.799 104.478,583.965 99,562.5C 98.0952,542.594 106.929,529.26 125.5,522.5 Z"/></g>
<g><path style="opacity:1" fill="#000000" d="M 353.5,468.5 C 347.355,467.51 341.022,467.177 334.5,467.5C 334.833,392.998 334.499,318.665 333.5,244.5C 333.5,228.5 333.5,212.5 333.5,196.5C 342.5,196.5 351.5,196.5 360.5,196.5C 360.5,253.833 360.5,311.167 360.5,368.5C 392.5,368.5 424.5,368.5 456.5,368.5C 456.5,311.167 456.5,253.833 456.5,196.5C 469.668,196.84 478.501,203.174 483,215.5C 483.5,299.833 483.667,384.166 483.5,468.5C 471.233,467.719 462.733,461.719 458,450.5C 456.567,432.214 456.067,413.88 456.5,395.5C 424.5,395.5 392.5,395.5 360.5,395.5C 360.5,419.833 360.5,444.167 360.5,468.5C 358.167,468.5 355.833,468.5 353.5,468.5 Z"/></g>
<g><path style="opacity:0.999" fill="#000000" d="M 680.5,467.5 C 671.833,467.5 663.167,467.5 654.5,467.5C 654.829,452.657 654.496,437.99 653.5,423.5C 653.5,414.167 653.5,404.833 653.5,395.5C 621.5,395.5 589.5,395.5 557.5,395.5C 557.961,414.235 557.461,432.902 556,451.5C 550.93,462.287 542.43,467.953 530.5,468.5C 530.333,420.499 530.5,372.499 531,324.5C 536.901,267.497 566.068,227.663 618.5,205C 638.559,197.825 659.225,194.992 680.5,196.5C 680.5,286.833 680.5,377.167 680.5,467.5 Z M 649.5,224.5 C 650.833,224.5 652.167,224.5 653.5,224.5C 653.5,272.5 653.5,320.5 653.5,368.5C 621.5,368.5 589.5,368.5 557.5,368.5C 556.952,349.427 557.785,330.427 560,311.5C 571.981,264.017 601.815,235.017 649.5,224.5 Z"/></g>
<g><path style="opacity:1" fill="#000000" d="M 728.5,196.5 C 749.169,196.333 769.836,196.5 790.5,197C 828.218,202.722 855.052,222.889 871,257.5C 886.776,302.897 876.943,341.731 841.5,374C 839.5,375.333 837.5,376.667 835.5,378C 849.962,407.757 864.295,437.59 878.5,467.5C 859.982,468.324 846.149,460.657 837,444.5C 828.689,426.563 820.189,408.73 811.5,391C 804.983,392.57 798.316,393.903 791.5,395C 779.505,395.5 767.505,395.667 755.5,395.5C 755.5,419.833 755.5,444.167 755.5,468.5C 746.5,468.5 737.5,468.5 728.5,468.5C 728.5,377.833 728.5,287.167 728.5,196.5 Z M 755.5,223.5 C 768.213,223.126 780.88,223.626 793.5,225C 824.107,232.607 842.94,251.773 850,282.5C 854.242,326.202 835.408,354.368 793.5,367C 780.88,368.374 768.213,368.874 755.5,368.5C 755.5,320.167 755.5,271.833 755.5,223.5 Z"/></g>
<g><path style="opacity:1" fill="#000000" d="M 925.5,196.5 C 946.169,196.333 966.836,196.5 987.5,197C 1036.67,206.167 1065.83,235.333 1075,284.5C 1077.48,337.989 1053.65,373.823 1003.5,392C 998.552,393.256 993.552,394.256 988.5,395C 976.505,395.5 964.505,395.667 952.5,395.5C 952.667,412.837 952.5,430.17 952,447.5C 948.05,460.569 939.217,467.569 925.5,468.5C 925.5,377.833 925.5,287.167 925.5,196.5 Z M 952.5,223.5 C 965.213,223.126 977.88,223.626 990.5,225C 1020.63,232.465 1039.46,251.298 1047,281.5C 1051.78,319.107 1037.28,346.274 1003.5,363C 999.227,364.535 994.894,365.869 990.5,367C 977.88,368.374 965.213,368.874 952.5,368.5C 952.5,320.167 952.5,271.833 952.5,223.5 Z"/></g>
<g><path style="opacity:0.686" fill="#222222" d="M 653.5,423.5 C 654.496,437.99 654.829,452.657 654.5,467.5C 663.167,467.5 671.833,467.5 680.5,467.5C 671.682,468.493 662.682,468.827 653.5,468.5C 653.5,453.5 653.5,438.5 653.5,423.5 Z"/></g>
<g><path style="opacity:0.906" fill="#1e1e1e" d="M 333.5,244.5 C 334.499,318.665 334.833,392.998 334.5,467.5C 341.022,467.177 347.355,467.51 353.5,468.5C 346.833,468.5 340.167,468.5 333.5,468.5C 333.5,393.833 333.5,319.167 333.5,244.5 Z"/></g>
</svg>
